# xmcd CD database file
#
# Track frame offsets:
#	150
#	10964
#	26074
#	42950
#	60842
#	81052
#	98195
#	113203
#	130851
#	151318
#	169605
#	185349
#
# Disc length: 2740 seconds
#
# Revision: 0
# Processed by: cddbd v1.5.2PL0 Copyright (c) Steve Scherf et al.
# Submitted via: CDex 1.51
#
DISCID=8b0ab20c
DTITLE=Arty Hill - Another Lost Highway
DYEAR=2011
DGENRE=Country
TTITLE0=Roll Me a Song
TTITLE1=Mae Dawn
TTITLE2=Omaha ICU
TTITLE3=King Of That Thing
TTITLE4=Another Lost Highway
TTITLE5=Big Drops Of Trouble
TTITLE6=Twelve Pack Morning
TTITLE7=Halfway House
TTITLE8=Breaking Up Party
TTITLE9=Victoria's Secret Is Safe With Me
TTITLE10=Blackwater Wildlife
TTITLE11=Arty Hill - The Last Time I'll Ever Go Away
EXTD=YEAR: 2011
EXTT0=
EXTT1=
EXTT2=
EXTT3=
EXTT4=
EXTT5=
EXTT6=
EXTT7=
EXTT8=
EXTT9=
EXTT10=
EXTT11=
PLAYORDER=
